<svg xmlns="http://www.w3.org/2000/svg" viewBox="0 0 807.8 238.77"><defs><style>.cls-1{fill:#ea4335;}.cls-2{fill:#fbbc05;}.cls-3{fill:#34a853;}.cls-4{fill:#4285f4;}</style></defs><title>jams_logo</title><g id="Layer_3" data-name="Layer 3"><path class="cls-1" d="M171.31,22,148.36,159.27q-5,30.71-13.3,44.61t-25.31,21.81q-17,7.89-47.57,7.9a181.5,181.5,0,0,1-37.39-4.1l8.06-48Q48.17,184,56.52,184q11.68,0,18.29-4.48a23.3,23.3,0,0,0,9.1-11.18q2.5-6.69,6-28.43L109.67,22Z" transform="translate(-16.21 -18.68)"/><path class="cls-2" d="M277.11,187.08H221.57L202.2,229.49H150.79L246.82,22h65.09l32.21,207.47H282.9Zm-3.7-42.86-8.25-60-27.33,60Z" transform="translate(-16.21 -18.68)"/><path class="cls-3" d="M625.19,22,590.54,229.49H532.13L550.67,119q2.9-17,7.45-35.57,3.64-15,5-23-1.83,4.72-5.33,14.29-7.45,19.92-13.69,34.05L490.43,229.49H453L438.8,108.81q-2-16-2.73-34Q435.47,64,434.86,58q-4.26,43-9.41,74.17l-16.24,97.28h-47L396.79,22h83.47l11.13,91.8q1.37,11.25,2.44,16a130.15,130.15,0,0,1,6.24-16L541.19,22Z" transform="translate(-16.21 -18.68)"/><path class="cls-4" d="M815.44,70.2,762.09,83.73q-2.28-9.27-11.4-14.59a39.07,39.07,0,0,0-20.06-5.32q-20.52,0-20.52,13.68A10.93,10.93,0,0,0,713,85.1q2.88,3.18,16.25,7.92l33,11.76a82.22,82.22,0,0,1,24,13.46q11.12,8.9,16,19.44a53.32,53.32,0,0,1,4.87,22.56q0,31.44-24.7,51.94t-65.89,20.5q-35.26,0-61.48-14.29t-36.55-43.62l59.88-11.7q7.75,22,38.3,22,12.78,0,18.47-4.64t5.7-10.56a10.77,10.77,0,0,0-2.2-6.69A14.39,14.39,0,0,0,733.9,159q-2.52-1.29-23.63-9.08-28.56-10.53-40-16.68A51.19,51.19,0,0,1,651.07,115q-7.68-12.15-7.68-28.56,0-28.4,20.89-48.07T728.2,18.68q32.82,0,56.23,13.83T815.44,70.2Z" transform="translate(-16.21 -18.68)"/><rect class="cls-1" y="223.66" width="126.79" height="15.11"/><rect class="cls-2" x="126.79" y="223.66" width="209.08" height="15.11"/><rect class="cls-3" x="335.87" y="223.66" width="257.93" height="15.11"/><rect class="cls-4" x="593.8" y="223.66" width="214" height="15.11"/></g></svg>